<svg width="24" height="24" viewBox="0 0 24 24" fill="none" xmlns="http://www.w3.org/2000/svg">
<g id="Component 34">
<path id="Vector" d="M20.5095 17.3632L20.4 20.1277C20.3599 21.1408 19.5088 21.9409 18.494 21.9007C18.439 21.8986 18.376 21.8961 18.321 21.8939C15.4933 21.4751 12.8098 20.4014 10.48 18.7516C8.30978 17.2498 6.49648 15.2902 5.16854 13.0115C3.69042 10.546 2.83139 7.7668 2.64505 4.91194C2.59077 3.89508 3.37353 3.02936 4.39203 2.9753C4.44709 2.97748 4.50216 2.97966 4.55722 2.98184L7.3262 3.09149C8.25474 3.12039 9.01464 3.82695 9.10412 4.75081C9.18697 5.64295 9.36515 6.51526 9.64684 7.36021C9.87182 8.04559 9.68464 8.79331 9.15311 9.28355L7.93468 10.4073C9.15725 12.7605 10.9932 14.7446 13.2461 16.1474L14.4646 15.0236C14.9958 14.5413 15.7654 14.4065 16.424 14.6843C17.2454 15.0315 18.1102 15.2781 18.9866 15.4308C19.9095 15.6011 20.5622 16.4293 20.5016 17.3629L20.5095 17.3632Z" stroke="white" stroke-width="2" stroke-linecap="round" stroke-linejoin="round"/>
<path id="Ellipse 14" d="M16.8696 8.98709C16.6811 8.2669 16.2954 7.61362 15.7558 7.10074C15.2162 6.58785 14.5442 6.23573 13.8154 6.08398" stroke="white" stroke-width="2" stroke-linecap="round" stroke-linejoin="round"/>
<path id="Ellipse 15" d="M20.6453 8.49839C20.1635 6.83324 19.2111 5.34267 17.9025 4.20582C16.5939 3.06897 14.9848 2.33421 13.2686 2.08986" stroke="white" stroke-width="2" stroke-linecap="round" stroke-linejoin="round"/>
</g>
</svg>
